<?xml version="1.0" encoding="UTF-8"?>
<svg version="1.1" xmlns="http://www.w3.org/2000/svg" width="1536" height="1024">
<path d="M0 0 C506.88 0 1013.76 0 1536 0 C1536 337.92 1536 675.84 1536 1024 C1029.12 1024 522.24 1024 0 1024 C0 686.08 0 348.16 0 0 Z " fill="#000000" transform="translate(0,0)"/>
<path d="M0 0 C0.9801709 0.48049805 1.9603418 0.96099609 2.97021484 1.45605469 C34.97464685 17.28412971 65.0542308 37.58194989 92 61 C92.67804687 61.5775 93.35609375 62.155 94.0546875 62.75 C98.66899511 66.71077907 103.11181479 70.85762255 107.5625 75 C108.18817871 75.58177002 108.81385742 76.16354004 109.45849609 76.76293945 C115.5528462 82.46087651 121.42518812 88.25575269 126.86328125 94.5859375 C128.54013416 96.48044408 130.24083576 98.32835618 131.98046875 100.1640625 C138.71960419 107.27965791 144.95769544 114.53188731 150.79833984 122.39990234 C152.00715725 124.0095304 153.24203408 125.59499719 154.48828125 127.17578125 C164.21253871 139.53113035 172.57343275 152.73751437 180.82714844 166.10400391 C181.94437154 167.91007272 183.06870381 169.71149408 184.1953125 171.51171875 C184.87335937 172.60097656 185.55140625 173.69023437 186.25 174.8125 C186.83265625 175.74707031 187.4153125 176.68164062 188.015625 177.64453125 C193.43377127 186.80631796 198.06470655 196.20890296 202.375 205.9375 C202.65824127 206.57471985 202.94148254 207.2119397 203.23330688 207.86846924 C205.1734395 212.23793851 207.09256479 216.61615906 209 221 C209.40041504 221.92022949 209.80083008 222.84045898 210.21337891 223.78857422 C214.85308545 234.58452568 218.63271053 245.64058986 222.25 256.8125 C222.56365005 257.77938751 222.56365005 257.77938751 222.88363647 258.76580811 C225.89934084 268.10687074 228.56007378 277.49560492 231 287 C231.24153809 287.93755127 231.48307617 288.87510254 231.73193359 289.84106445 C234.68072706 301.46153621 237.02291246 313.06359204 238.70019531 324.93359375 C238.96086109 326.73023474 239.25485954 328.5219781 239.5546875 330.3125 C253.08326328 413.56527403 237.6354316 500.51239985 204 577 C203.45980225 578.24402588 203.45980225 578.24402588 202.90869141 579.51318359 C197.22539833 592.51445761 190.15134106 604.76099677 183 617 C182.52127441 617.82209961 182.04254883 618.64419922 181.54931641 619.49121094 C175.10035028 630.50007526 167.96881801 640.86725788 160.36376953 651.10742188 C159.09020244 652.8748211 157.91171789 654.67601514 156.74609375 656.515625 C156.16988281 657.33546875 155.59367187 658.1553125 155 659 C154.34 659 153.68 659 153 659 C152.75507812 659.72832031 152.51015625 660.45664062 152.2578125 661.20703125 C150.85525932 664.32139623 149.22086374 666.21494327 146.875 668.6875 C143.73647385 672.06706496 140.76984106 675.4850211 137.9375 679.125 C134.83671034 683.06251068 131.52650119 686.58246083 127.93359375 690.0703125 C126.02301808 691.97702842 124.25721225 693.95191135 122.5 696 C118.87419913 700.21624092 114.96868585 704.10896235 111 708 C110.46890625 708.57105469 109.9378125 709.14210938 109.390625 709.73046875 C108 711 108 711 106 711 C106 711.66 106 712.32 106 713 C104.6015625 714.41015625 104.6015625 714.41015625 102.625 716.0625 C99.47821792 718.73066312 96.40792312 721.45308248 93.375 724.25 C87.17412457 729.83645942 80.62017654 734.92566008 74 740 C73.35192383 740.49967285 72.70384766 740.9993457 72.03613281 741.51416016 C63.57164709 748.02705418 54.99334761 754.1650822 45.91650391 759.79833984 C44.45390746 760.71539713 42.99927108 761.64516222 41.54833984 762.58056641 C-50.45271379 821.82628513 -163.524567 842.04391388 -283.6875 821.5625 C-284.73744141 821.35818359 -285.78738281 821.15386719 -286.86914062 820.94335938 C-292.5712674 819.80576914 -298.11132303 818.45886136 -303.65991211 816.72143555 C-305.87540266 816.03841264 -308.09551891 815.43175056 -310.33984375 814.8515625 C-351.71939364 803.94715451 -393.59630628 785.80456852 -429.22460938 762.17675781 C-431.05217206 760.96541951 -432.89216595 759.77486058 -434.734375 758.5859375 C-452.73686412 746.87895475 -469.14669054 733.45301715 -485 719 C-485.81726563 718.27554688 -486.63453125 717.55109375 -487.4765625 716.8046875 C-494.23441054 710.74794185 -500.71643141 704.41620168 -507.15396118 698.02227783 C-508.15978763 697.02383731 -509.16720231 696.02699368 -510.17636108 695.03192139 C-516.92320536 688.37050158 -523.09719942 681.42161875 -529 674 C-530.55925805 672.16390858 -532.12103933 670.32995036 -533.6875 668.5 C-559.17124565 637.94328477 -579.03832048 603.33220382 -595 567 C-595.71591309 565.39402954 -595.71591309 565.39402954 -596.44628906 563.75561523 C-600.23514965 555.12590657 -603.43383698 546.38092306 -606.375 537.4375 C-606.60922668 536.72956299 -606.84345337 536.02162598 -607.08477783 535.29223633 C-618.30368345 501.29899971 -625.3038018 467.54330741 -629 432 C-629.08776199 431.24796295 -629.17552399 430.4959259 -629.26594543 429.72109985 C-629.99182263 423.20283208 -630.16094548 416.75847712 -630.16796875 410.203125 C-630.17129715 409.09306091 -630.17462555 407.98299683 -630.17805481 406.83929443 C-630.18309366 404.49621999 -630.18546408 402.15313845 -630.18530273 399.81005859 C-630.18746813 396.30163039 -630.20559849 392.79352812 -630.22460938 389.28515625 C-630.26010536 375.07710276 -629.60803568 361.11634965 -628 347 C-627.89496155 346.06420609 -627.7899231 345.12841217 -627.68170166 344.16426086 C-626.29406595 331.92094903 -624.34978503 319.80375217 -622.125 307.6875 C-621.89264648 306.40182129 -621.66029297 305.11614258 -621.42089844 303.79150391 C-618.36865423 287.62857683 -613.54071767 272.01271243 -608.3125 256.4375 C-607.9222464 255.27287231 -607.9222464 255.27287231 -607.52410889 254.0847168 C-594.39153215 215.01901515 -576.46864044 178.93263976 -553 145 C-552.39027344 144.10796875 -551.78054688 143.2159375 -551.15234375 142.296875 C-539.61012169 125.57511366 -526.887109 109.81952917 -513 95 C-512.04519047 93.95596516 -511.09210075 92.91035521 -510.140625 91.86328125 C-500.31724886 81.07032088 -490.36406589 70.3786766 -478.8828125 61.32421875 C-476.11460601 59.09239916 -473.46233128 56.77197374 -470.80761719 54.40844727 C-450.72709171 36.60074367 -427.73074269 22.27340124 -404.31738281 9.29003906 C-402.33437333 8.18613871 -400.36466247 7.06305243 -398.3984375 5.9296875 C-350.83427516 -20.69287643 -295.0488645 -36.49994918 -241 -42 C-239.89833496 -42.11569336 -238.79666992 -42.23138672 -237.66162109 -42.35058594 C-155.93663144 -50.5632955 -73.69495322 -36.28748456 0 0 Z " fill="#369F24" transform="translate(962,119)"/>
<path d="M0 0 C0.72125061 0.09470078 1.44250122 0.18940155 2.18560791 0.28697205 C5.43215684 0.72591747 8.50571739 1.28951529 11.69140625 2.0859375 C11.69140625 37.3959375 11.69140625 72.7059375 11.69140625 109.0859375 C-17.99609375 109.3984375 -17.99609375 109.3984375 -27.2253418 109.47387695 C-56.18217881 109.28783418 -56.18217881 109.28783418 -83.30859375 118.0859375 C-84.25992187 118.6015625 -85.21125 119.1171875 -86.19140625 119.6484375 C-99.97579778 127.76132189 -107.81852178 140.82981775 -112.24609375 155.9609375 C-114.27580398 163.89159338 -114.4549976 172.24497359 -114.51391602 180.39111328 C-114.52394874 181.27450315 -114.53398146 182.15789303 -114.5443182 183.06805229 C-114.57535995 185.88909274 -114.60033057 188.71014743 -114.625 191.53125 C-114.64343522 193.28833437 -114.66227351 195.04541455 -114.68151855 196.80249023 C-114.74958077 203.27192325 -114.80987937 209.74143607 -114.87109375 216.2109375 C-115.01546875 230.6896875 -115.15984375 245.1684375 -115.30859375 260.0859375 C-75.04859375 260.0859375 -34.78859375 260.0859375 6.69140625 260.0859375 C5.57935675 266.75823449 4.47330092 273.39284919 3.2109375 280.03125 C-0.33167238 298.92770655 -3.40658292 317.85584551 -6.05859375 336.8984375 C-6.2009848 337.91528625 -6.34337585 338.93213501 -6.49008179 339.97979736 C-8.6757999 355.65945976 -10.49338386 371.35411846 -12.30859375 387.0859375 C-46.29859375 387.0859375 -80.28859375 387.0859375 -115.30859375 387.0859375 C-115.30335693 396.32005615 -115.29812012 405.5541748 -115.29272461 415.06811523 C-115.27669094 444.57889728 -115.2655583 474.08967934 -115.25752842 503.60046461 C-115.25627764 508.18066457 -115.25498333 512.76086451 -115.25366211 517.34106445 C-115.25326864 518.70887725 -115.25326864 518.70887725 -115.25286723 520.10432262 C-115.24851022 534.88936185 -115.2406225 549.67439721 -115.23144095 564.45943414 C-115.22210528 579.61855508 -115.21653832 594.77767398 -115.21450526 609.93679768 C-115.21312985 619.29858005 -115.20877831 628.66035149 -115.20067728 638.0221305 C-115.19541088 644.43282904 -115.19378921 650.84352189 -115.19509237 657.25422245 C-115.19573592 660.95856627 -115.19471637 664.66289092 -115.18938828 668.36723137 C-115.1836673 672.37373483 -115.18559258 676.38019692 -115.18833923 680.38670349 C-115.18542639 681.57052988 -115.18251355 682.75435627 -115.17951244 683.97405618 C-115.18150349 685.03848288 -115.18349454 686.10290958 -115.18554592 687.19959164 C-115.1851662 688.12572952 -115.18478648 689.05186741 -115.18439525 690.00607008 C-115.30859375 692.0859375 -115.30859375 692.0859375 -116.30859375 693.0859375 C-120.8475526 693.76783005 -125.4277239 694.14787832 -129.99609375 694.5859375 C-130.68387909 694.65285797 -131.37166443 694.71977844 -132.08029175 694.78872681 C-170.13816819 698.44381034 -213.970391 701.42048819 -251.30859375 692.0859375 C-251.30859375 591.4359375 -251.30859375 490.7859375 -251.30859375 387.0859375 C-287.93859375 387.0859375 -324.56859375 387.0859375 -362.30859375 387.0859375 C-362.30859375 345.1759375 -362.30859375 303.2659375 -362.30859375 260.0859375 C-325.67859375 260.0859375 -289.04859375 260.0859375 -251.30859375 260.0859375 C-251.34339844 251.75085938 -251.37820313 243.41578125 -251.4140625 234.828125 C-251.43137248 228.82664159 -251.4467455 222.82517728 -251.45935535 216.82368469 C-251.47588343 209.07836282 -251.4967575 201.33313943 -251.53491211 193.58789062 C-251.56840205 186.78621591 -251.58551446 179.98464774 -251.59322548 173.18289566 C-251.5987112 170.60535129 -251.60942073 168.02781184 -251.62578392 165.45031357 C-251.74607164 145.69278492 -250.83089811 126.28587507 -245.49609375 107.1484375 C-245.23602539 106.19227539 -244.97595703 105.23611328 -244.70800781 104.25097656 C-237.85254733 79.73174817 -225.77854748 58.56377317 -208.30859375 40.0859375 C-207.6125 39.33699219 -206.91640625 38.58804688 -206.19921875 37.81640625 C-196.54471348 27.75669364 -185.33022513 19.94672586 -173.21484375 13.15625 C-171.97192917 12.45838403 -170.73458339 11.7504769 -169.50390625 11.03125 C-119.88840469 -17.78473999 -54.00583325 -7.17632904 0 0 Z " fill="#FEFEFE" transform="translate(951.30859375,251.9140625)"/>
<path d="M0 0 C0.33 0 0.66 0 1 0 C1 30.69 1 61.38 1 93 C9.65089844 92.98839844 18.30179688 92.97679687 27.21484375 92.96484375 C33.37337051 92.95908836 39.53189527 92.95396143 45.69042301 92.94974613 C53.67863111 92.94419432 61.66682883 92.93713461 69.6550293 92.92456055 C75.97733856 92.91461344 82.29964001 92.90814651 88.62195688 92.90591151 C91.9715675 92.90460444 95.32115574 92.90151887 98.6707592 92.89426994 C102.40413645 92.8870638 106.13746658 92.88600888 109.87084961 92.88647461 C110.98934296 92.88287933 112.1078363 92.87928406 113.26022339 92.87557983 C114.27129654 92.8769545 115.28236969 92.87832916 116.32408142 92.87974548 C117.65008063 92.87836279 117.65008063 92.87836279 119.0028677 92.87695217 C121 93 121 93 122 94 C121.91036938 95.69141656 121.75422324 97.37959602 121.5625 99.0625 C121.46066406 99.98160156 121.35882812 100.90070313 121.25390625 101.84765625 C121.12822266 102.91306641 121.12822266 102.91306641 121 104 C120.67 104 120.34 104 120 104 C120.33 101.03 120.66 98.06 121 95 C80.74 95 40.48 95 -1 95 C-1.020625 80.43875 -1.04125 65.8775 -1.0625 50.875 C-1.071604 46.28319824 -1.08070801 41.69139648 -1.09008789 36.96044922 C-1.09460449 31.33813477 -1.09460449 31.33813477 -1.09544373 28.70315552 C-1.09697577 26.86925005 -1.10048548 25.03534557 -1.10557556 23.20144653 C-1.11291269 20.41797139 -1.11390539 17.63455761 -1.11352539 14.85107422 C-1.1171235 14.03887861 -1.12072161 13.22668301 -1.12442875 12.38987541 C-1.11669252 8.146556 -0.84208984 4.18018373 0 0 Z " fill="#229714" transform="translate(837,417)"/>
<path d="M0 0 C1.46015291 0.28241641 2.91809793 0.57626614 4.375 0.875 C5.18710937 1.03742188 5.99921875 1.19984375 6.8359375 1.3671875 C9 2 9 2 11 4 C8.21176345 5.0326802 7.1322726 5.04509293 4.25 4.0625 C3.5075 3.711875 2.765 3.36125 2 3 C2 2.34 2 1.68 2 1 C1.34 0.67 0.68 0.34 0 0 Z " fill="#3CB62A" transform="translate(911,99)"/>
</svg>
