<?xml version="1.0" encoding="UTF-8"?>
<svg version="1.1" xmlns="http://www.w3.org/2000/svg" width="1024" height="1024">
<path d="M0 0 C337.92 0 675.84 0 1024 0 C1024 337.92 1024 675.84 1024 1024 C686.08 1024 348.16 1024 0 1024 C0 686.08 0 348.16 0 0 Z " fill="#020D20" transform="translate(0,0)"/>
<path d="M0 0 C337.92 0 675.84 0 1024 0 C1024 337.92 1024 675.84 1024 1024 C686.08 1024 348.16 1024 0 1024 C0 686.08 0 348.16 0 0 Z M265.8125 143.3125 C264.00712769 143.77088257 264.00712769 143.77088257 262.1652832 144.23852539 C236.85488121 150.80767638 212.74028702 161.53633003 193 179 C192.02417969 179.84304687 191.04835937 180.68609375 190.04296875 181.5546875 C156.8557781 210.66691412 139.59232972 255.59838466 136.71318179 299.04067987 C136.08896465 309.43616738 135.85089266 319.79169697 135.85282898 330.20399475 C135.84951769 331.85418149 135.84578955 333.50436744 135.8416875 335.1545524 C135.83180345 339.63360778 135.82797308 344.11264978 135.82529819 348.5917145 C135.82135427 353.44484103 135.81177953 358.29795736 135.80308533 363.15107727 C135.78343876 374.84127464 135.77327144 386.53147273 135.76435754 398.22168246 C135.76084064 402.63777906 135.75669505 407.05387497 135.75251788 411.46997099 C135.73406358 430.98379064 135.7183177 450.49761032 135.71061993 470.01143742 C135.70871054 474.77365685 135.70679013 479.53587629 135.70483398 484.2980957 C135.70435024 485.48148757 135.7038665 486.66487944 135.7033681 487.88413166 C135.69507871 507.02750809 135.66975367 526.17082181 135.63725331 545.3141709 C135.60404979 565.03474774 135.58615937 584.75529283 135.58297569 604.47589773 C135.58082323 615.52141212 135.57226155 626.56683497 135.54651451 637.61232185 C135.52462521 647.02356104 135.51684556 656.43468641 135.52648129 665.84594817 C135.53097342 670.63190527 135.52944365 675.41762847 135.50971985 680.20355225 C135.29360414 735.7692047 142.34036765 791.20231316 181 834 C181.69351563 834.77730469 182.38703125 835.55460938 183.1015625 836.35546875 C201.41058078 855.76020048 225.26751303 867.13298213 250 876 C251.13179688 876.41894531 252.26359375 876.83789062 253.4296875 877.26953125 C260.55902517 879.69427889 267.94315369 881.13217248 275.3125 882.625 C276.79520386 882.9348584 276.79520386 882.9348584 278.30786133 883.25097656 C301.55892835 887.72968809 325.31039537 887.29920846 348.88005233 887.27610838 C353.66966189 887.27360999 358.45925307 887.28269347 363.24885559 887.29014587 C372.60095813 887.30281052 381.95303184 887.30469686 391.30514151 887.30234561 C398.91919018 887.30055266 406.53323019 887.30233287 414.14727783 887.30657005 C415.23660535 887.30716524 416.32593287 887.30776043 417.44827032 887.30837366 C419.6622591 887.30958559 421.87624788 887.31079972 424.09023666 887.31201603 C444.79371967 887.32286029 465.49718633 887.32074415 486.20067024 887.31463119 C505.06950404 887.3094673 523.93828613 887.32070911 542.80710971 887.33972941 C562.25780234 887.35918339 581.70847061 887.36735046 601.15917301 887.36360615 C612.04860703 887.36170521 622.9379971 887.36407234 633.8274231 887.37832069 C643.1001986 887.39033255 652.37290311 887.39153124 661.64567977 887.37953053 C666.36062741 887.37370912 671.07544586 887.37235088 675.79038429 887.38453293 C713.26170055 888.06592015 713.26170055 888.06592015 750 882 C751.5922925 881.6624892 753.18704889 881.33615083 754.78515625 881.02734375 C786.56355359 874.57268684 817.07192304 860.29492619 840 837 C841.05960938 835.99259766 841.05960938 835.99259766 842.140625 834.96484375 C856.71491482 820.95733187 866.557386 803.60953203 874 785 C874.39098877 784.05237793 874.78197754 783.10475586 875.18481445 782.12841797 C878.44434748 774.01264418 880.73782379 765.89317533 882.6875 757.375 C882.98205078 756.16199219 883.27660156 754.94898438 883.58007812 753.69921875 C887.33594758 737.54476003 888.30267067 721.34589284 888.25396729 704.80880737 C888.25627911 703.06385803 888.25946043 701.31890966 888.26342177 699.57396328 C888.27167917 694.83822005 888.26768634 690.10255865 888.26144934 685.36681533 C888.25688835 680.23657316 888.26392649 675.1063442 888.26940918 669.97610474 C888.27826583 659.94989189 888.27639798 649.92370912 888.2705839 639.89749514 C888.26605317 631.74448772 888.26546058 623.59148869 888.26763153 615.43848038 C888.267938 614.27476053 888.26824446 613.11104069 888.26856022 611.9120566 C888.26919971 609.54744918 888.26984814 607.18284176 888.2705054 604.81823434 C888.27619764 582.68693209 888.26966793 560.55564646 888.25890467 538.42434694 C888.24996781 519.46176335 888.25152447 500.49920425 888.26074219 481.53662109 C888.27146032 459.47730167 888.27565089 437.41799678 888.26951766 415.35867512 C888.26888061 413.00374611 888.26825187 410.6488171 888.26763153 408.29388809 C888.26732298 407.13543043 888.26701443 405.97697277 888.26669653 404.78341033 C888.26497439 396.6453868 888.26787423 388.50737253 888.27259064 380.36935043 C888.27821654 370.44459548 888.27664709 360.51987214 888.26602915 350.59512077 C888.26079576 345.53779955 888.25867569 340.48053091 888.26532745 335.42321014 C888.2713375 330.78341501 888.26792948 326.14372065 888.25737235 321.50393452 C888.25515959 319.83597514 888.25622606 318.16800704 888.26112393 316.50005339 C888.39669651 266.446245 872.43047676 219.63470298 837.6875 183.3125 C831.64184815 177.40405444 825.04692389 172.62401059 818 168 C817.1344751 167.42403076 817.1344751 167.42403076 816.25146484 166.83642578 C795.88316636 153.43096411 772.75686543 145.95696119 749 141.25 C748.00524658 141.05116211 747.01049316 140.85232422 745.9855957 140.64746094 C723.97884978 136.5369498 701.9693859 136.70273599 679.68014407 136.72389162 C674.7569336 136.72638131 669.83374131 136.71731701 664.91053772 136.70985413 C655.28918382 136.69716575 645.66785791 136.69530617 636.04649705 136.69765439 C628.21588055 136.6994447 620.38527248 136.6976727 612.55465698 136.69342995 C611.435879 136.69283476 610.31710101 136.69223957 609.16442066 136.69162634 C606.89083282 136.69041446 604.61724498 136.68920032 602.34365714 136.68798397 C581.06518019 136.6771305 559.78671913 136.6792602 538.5082413 136.68536881 C519.09972982 136.6905331 499.6912686 136.67929147 480.28276706 136.66027059 C460.2943346 136.64083351 440.30592586 136.63264663 420.3174839 136.63639385 C409.11959808 136.63829738 397.921755 136.63590186 386.72387695 136.62167931 C377.18811852 136.60968922 367.65242911 136.60844501 358.1166696 136.62046947 C353.26452852 136.62630584 348.41251319 136.62760569 343.56038094 136.61546707 C317.45915343 136.55464996 291.24087856 136.59889294 265.8125 143.3125 Z " fill="#F8FAFB" transform="translate(0,0)"/>
<path d="M0 0 C1.26965636 -0.00241442 2.53931272 -0.00482883 3.84744352 -0.00731641 C7.34604725 -0.01368765 10.84453402 -0.00769492 14.34312999 0.00044787 C18.1255617 0.00705756 21.90798103 0.00206947 25.69041443 -0.00143433 C33.08757565 -0.00646231 40.48469199 -0.00085337 47.88184763 0.00841597 C56.49381508 0.01881881 65.10577292 0.01872933 73.71774548 0.01824339 C89.0757914 0.0177434 104.43381646 0.02688987 119.79185486 0.04142761 C134.7039681 0.05553596 149.61606298 0.0625974 164.52818298 0.06193542 C165.44797198 0.06189547 166.36776097 0.06185551 167.31542236 0.06181435 C168.23360646 0.06177399 169.15179055 0.06173364 170.09779841 0.06169206 C187.07269031 0.06100314 204.04757441 0.06688403 221.02246379 0.07584528 C227.03088658 0.07886609 233.03930794 0.07992534 239.0477314 0.08037758 C246.35897555 0.08105807 253.67020653 0.08550025 260.98144508 0.09471039 C264.71420925 0.09934157 268.4469565 0.10236901 272.17972374 0.10111618 C276.21635172 0.09982698 280.25292918 0.10624196 284.28955078 0.11352539 C285.48211977 0.11197679 286.67468875 0.11042819 287.90339619 0.10883266 C289.51168613 0.11366933 289.51168613 0.11366933 291.15246677 0.11860371 C292.55176909 0.11966034 292.55176909 0.11966034 293.97934014 0.12073833 C296.073349 0.24723816 296.073349 0.24723816 297.073349 1.24723816 C296.47317369 6.82271993 295.30962741 12.29315725 294.182724 17.78239441 C293.90536659 19.14387856 293.90536659 19.14387856 293.62240601 20.53286743 C293.02520286 23.45900511 292.42452918 26.38441518 291.823349 29.30973816 C291.61948578 30.30521667 291.41562256 31.30069519 291.20558167 32.32633972 C288.81430802 43.99695234 286.38369968 55.65158494 283.67588806 67.25358582 C282.36660343 72.87802583 281.18679342 78.51835858 280.073349 84.18473816 C278.57987766 91.78333001 277.01369665 99.36372195 275.385849 106.93473816 C275.17122009 107.94592712 274.95659119 108.95711609 274.73545837 109.99894714 C274.53372009 110.93037537 274.33198181 111.86180359 274.12413025 112.82145691 C273.85596497 114.06802063 273.85596497 114.06802063 273.5823822 115.33976746 C273.073349 117.24723816 273.073349 117.24723816 272.073349 118.24723816 C269.22864068 118.34516416 266.40820996 118.37716309 263.56307983 118.36749268 C262.20810059 118.36877431 262.20810059 118.36877431 260.82574803 118.37008184 C257.77471709 118.37173942 254.72374017 118.36621076 251.67271423 118.36076355 C249.49525453 118.36048171 247.31779473 118.36063934 245.14033508 118.36120605 C239.20875703 118.36149416 233.27719901 118.35559532 227.34562564 118.3486321 C221.15428693 118.34240074 214.96294781 118.34179493 208.77160645 118.34060669 C197.70621053 118.33766998 186.64082293 118.33043985 175.57543082 118.32096397 C161.55348516 118.30901967 147.53154065 118.3028374 133.50959098 118.29756176 C106.03083733 118.28709591 78.55209638 118.26874963 51.073349 118.24723816 C51.073349 142.66723816 51.073349 167.08723816 51.073349 192.24723816 C117.733349 192.24723816 184.393349 192.24723816 253.073349 192.24723816 C251.94762812 204.6301678 251.94762812 204.6301678 250.9092865 209.57536316 C250.67814148 210.68726013 250.44699646 211.7991571 250.20884705 212.94474792 C249.83240051 214.70323059 249.83240051 214.70323059 249.448349 216.49723816 C249.18256042 217.76172791 248.91677185 219.02621765 248.64292908 220.32902527 C246.5114724 230.42405278 244.2156218 240.48056411 241.90440369 250.53581238 C238.67947055 264.66587915 235.8447852 278.87749399 233.00572205 293.08927917 C232.81808792 294.0214476 232.6304538 294.95361603 232.43713379 295.91403198 C232.08151056 297.68104521 231.7290378 299.44869615 231.38009644 301.21704102 C230.18604938 307.13453778 230.18604938 307.13453778 229.073349 308.24723816 C226.78244806 308.3443433 224.48848358 308.36910403 222.19552612 308.36749268 C221.10393601 308.36877431 221.10393601 308.36877431 219.99029356 308.37008184 C217.53349787 308.3717388 215.07676934 308.36621178 212.61997986 308.36076355 C210.86616009 308.3604817 209.11234021 308.36063937 207.35852051 308.36120605 C202.58186231 308.36149411 197.805229 308.35559611 193.02857661 308.3486321 C188.04240846 308.34239987 183.0562398 308.34179487 178.07006836 308.34060669 C168.62111606 308.33749298 159.17217526 308.32927907 149.72322804 308.3192572 C138.96887656 308.30809728 128.21452454 308.30258592 117.46016872 308.29756176 C95.33122238 308.28709649 73.20228641 308.26949629 51.073349 308.24723816 C51.08223145 309.51906952 51.09111389 310.79090088 51.1002655 312.10127258 C51.18163832 324.13466811 51.24145167 336.16800722 51.28059769 348.20161629 C51.30140016 354.38702561 51.32958308 360.57221137 51.37510681 366.75749207 C51.41882702 372.73569283 51.4425412 378.71367964 51.45285797 384.69202805 C51.46020256 386.96360004 51.47454377 389.23516141 51.49626923 391.50664139 C51.6917361 412.80624816 48.96201029 429.52672737 33.635849 445.49723816 C20.70838193 458.29784609 3.02846897 464.62502389 -15.03588295 464.71122932 C-17.1860165 464.70022054 -19.33532484 464.66950774 -21.48524475 464.63786316 C-23.01079556 464.63037656 -24.53635618 464.62469512 -26.06192017 464.62071228 C-30.02236321 464.6056456 -33.98219275 464.56653539 -37.94239807 464.52189636 C-42.00542406 464.48052677 -46.06855196 464.46261352 -50.13172913 464.44255066 C-58.06364718 464.40001614 -65.99507219 464.33200466 -73.926651 464.24723816 C-74.01826354 412.92499924 -74.08871868 361.60276861 -74.13091232 310.28046396 C-74.13591497 304.21746799 -74.14109228 298.15447218 -74.14637756 292.09147644 C-74.14742681 290.88447442 -74.14847605 289.67747241 -74.14955708 288.43389457 C-74.16694876 268.90606886 -74.19847964 249.37829038 -74.23526219 229.85049266 C-74.27270603 209.80399836 -74.29489414 189.75752875 -74.30300498 169.71100092 C-74.3084856 157.34735842 -74.32577791 144.98384946 -74.35831687 132.62024808 C-74.37950725 124.13498223 -74.38584081 115.64978513 -74.38065651 107.16449475 C-74.37810178 102.2734275 -74.38193895 97.38259315 -74.4034729 92.49156761 C-74.42308535 88.00394871 -74.42382678 83.51671706 -74.41024658 79.0290795 C-74.40857073 77.41506952 -74.41351976 75.80103434 -74.42618373 74.18707317 C-74.57108737 54.56093067 -70.19474323 37.11155448 -56.25086975 22.52848816 C-40.06069607 6.63762861 -22.73746243 -0.09974612 0 0 Z " fill="#178CAC" transform="translate(418.92665100097656,288.7527618408203)"/>
<path d="M0 0 C0.66 0.33 1.32 0.66 2 1 C0.77023437 2.12148438 0.77023437 2.12148438 -0.484375 3.265625 C-1.57296139 4.26036773 -2.66150055 5.25516213 -3.75 6.25 C-4.55824219 6.98669922 -4.55824219 6.98669922 -5.3828125 7.73828125 C-11.03251516 12.70310665 -11.03251516 12.70310665 -15.5625 18.625 C-17 21 -17 21 -20 23 C-16.73468881 13.37502512 -7.54935486 6.38928851 0 0 Z " fill="#29AF81" transform="translate(374,301)"/>
<path d="M0 0 C0.33 0.99 0.66 1.98 1 3 C-0.98 4.98 -2.96 6.96 -5 9 C-5.66 8.67 -6.32 8.34 -7 8 C-4.69 5.36 -2.38 2.72 0 0 Z " fill="#142036" transform="translate(182,189)"/>
</svg>
